<svg xmlns="http://www.w3.org/2000/svg" viewBox="0 0 800 450" width="100%" height="100%">
  <!-- Definitions -->
  <defs>
    <linearGradient id="bgGrad" x1="0%" y1="0%" x2="100%" y2="100%">
      <stop offset="0%" stop-color="#020617" />
      <stop offset="100%" stop-color="#0f172a" />
    </linearGradient>
    <radialGradient id="glowGrad" cx="50%" cy="50%" r="50%">
      <stop offset="0%" stop-color="#ef4444" stop-opacity="0.15" />
      <stop offset="100%" stop-color="#ef4444" stop-opacity="0" />
    </radialGradient>
    <pattern id="grid" width="30" height="30" patternUnits="userSpaceOnUse">
      <path d="M 30 0 L 0 0 0 30" fill="none" stroke="#334155" stroke-width="1" stroke-opacity="0.07" />
    </pattern>
  </defs>

  <!-- Background -->
  <rect width="100%" height="100%" fill="url(#bgGrad)" />
  <rect width="100%" height="100%" fill="url(#grid)" />

  <!-- Scanning Glow -->
  <circle cx="400" cy="220" r="180" fill="url(#glowGrad)" />

  <!-- Cybernetic Reticles -->
  <circle cx="400" cy="220" r="140" fill="none" stroke="#ef4444" stroke-width="1" stroke-opacity="0.1" stroke-dasharray="5 5" />
  <circle cx="400" cy="220" r="100" fill="none" stroke="#ef4444" stroke-width="1" stroke-opacity="0.15" />
  
  <!-- Outer Brackets -->
  <path d="M 230,150 L 230,120 L 260,120" fill="none" stroke="#ef4444" stroke-width="2" stroke-opacity="0.3" />
  <path d="M 570,150 L 570,120 L 540,120" fill="none" stroke="#ef4444" stroke-width="2" stroke-opacity="0.3" />
  <path d="M 230,290 L 230,320 L 260,320" fill="none" stroke="#ef4444" stroke-width="2" stroke-opacity="0.3" />
  <path d="M 570,290 L 570,320 L 540,320" fill="none" stroke="#ef4444" stroke-width="2" stroke-opacity="0.3" />

  <!-- Center Core Icon -->
  <g id="coreIcon">
    <rect x="345" y="195" width="55" height="55" rx="27.5" transform="rotate(45 372.5 222.5)" fill="none" stroke="#ef4444" stroke-width="6"/><line x1="353" y1="203" x2="392" y2="242" stroke="#ef4444" stroke-width="4"/><circle cx="430" cy="220" r="14" fill="none" stroke="#ef4444" stroke-width="5"/>
  </g>

  <!-- Text Annotations -->
  <text x="400" y="380" font-family="'Outfit', 'Inter', 'Roboto', sans-serif" font-size="28" font-weight="900" fill="#f8fafc" text-anchor="middle" letter-spacing="4" font-style="italic">TRANQUILLISANTS</text>
  <text x="400" y="410" font-family="'Outfit', 'Inter', 'Roboto', sans-serif" font-size="11" font-weight="900" fill="#ef4444" text-anchor="middle" letter-spacing="8" opacity="0.8">SECTION H</text>

  <!-- Scanning Line -->
  <line x1="200" y1="60" x2="600" y2="60" stroke="#ef4444" stroke-width="1" stroke-opacity="0.05" />
</svg>
